<?xml version="1.0" encoding="UTF-8"?>
<svg id="Ebene_1" data-name="Ebene 1" xmlns="http://www.w3.org/2000/svg" xmlns:xlink="http://www.w3.org/1999/xlink" viewBox="0 0 1920 691">
  <defs>
    <style>
      .cls-1 {
        fill: url(#Unbenannter_Verlauf_403);
      }

      .cls-2 {
        fill: url(#Unbenannter_Verlauf_626-4);
      }

      .cls-3 {
        fill: url(#Unbenannter_Verlauf_626-3);
      }

      .cls-4 {
        fill: url(#Unbenannter_Verlauf_368-3);
      }

      .cls-5 {
        isolation: isolate;
      }

      .cls-6 {
        fill: url(#Unbenannter_Verlauf_382);
      }

      .cls-7 {
        fill: url(#Unbenannter_Verlauf_368-2);
      }

      .cls-8 {
        fill: url(#Unbenannter_Verlauf_626);
      }

      .cls-9 {
        fill: url(#Unbenannter_Verlauf_368);
      }

      .cls-10 {
        fill: url(#Unbenannter_Verlauf_626-6);
      }

      .cls-11 {
        fill: url(#Unbenannter_Verlauf_626-2);
      }

      .cls-12 {
        fill: url(#Unbenannter_Verlauf_382-2);
      }

      .cls-13 {
        fill: url(#Unbenannter_Verlauf_3);
      }

      .cls-14 {
        fill: url(#Unbenannter_Verlauf_626-5);
      }
    </style>
    <linearGradient id="Unbenannter_Verlauf_626" data-name="Unbenannter Verlauf 626" x1="365.26" y1="556.95" x2="365.26" y2="408.78" gradientUnits="userSpaceOnUse">
      <stop offset="0" stop-color="#2c002c"/>
      <stop offset="1" stop-color="#530047"/>
    </linearGradient>
    <linearGradient id="Unbenannter_Verlauf_626-2" data-name="Unbenannter Verlauf 626" x1="146.95" y1="653.9" x2="146.95" y2="507.33" xlink:href="#Unbenannter_Verlauf_626"/>
    <linearGradient id="Unbenannter_Verlauf_3" data-name="Unbenannter Verlauf 3" x1="357.4" y1="507.33" x2="357.4" y2="38" gradientUnits="userSpaceOnUse">
      <stop offset="0" stop-color="#74264f"/>
      <stop offset="1" stop-color="#892788"/>
    </linearGradient>
    <linearGradient id="Unbenannter_Verlauf_626-3" data-name="Unbenannter Verlauf 626" x1="567.71" y1="653.9" x2="567.71" y2="507.33" xlink:href="#Unbenannter_Verlauf_626"/>
    <linearGradient id="Unbenannter_Verlauf_382" data-name="Unbenannter Verlauf 382" x1="1752.66" y1="312.65" x2="1752.66" y2="38" gradientUnits="userSpaceOnUse">
      <stop offset="0" stop-color="#f7931e"/>
      <stop offset="1" stop-color="#fbb03b"/>
    </linearGradient>
    <linearGradient id="Unbenannter_Verlauf_403" data-name="Unbenannter Verlauf 403" x1="1773.04" y1="653.9" x2="1773.04" y2="507.33" gradientUnits="userSpaceOnUse">
      <stop offset="0" stop-color="#4b2716"/>
      <stop offset="1" stop-color="#c1272d"/>
    </linearGradient>
    <linearGradient id="Unbenannter_Verlauf_382-2" data-name="Unbenannter Verlauf 382" x1="1778.94" y1="507.33" x2="1778.94" y2="360.43" xlink:href="#Unbenannter_Verlauf_382"/>
    <linearGradient id="Unbenannter_Verlauf_626-4" data-name="Unbenannter Verlauf 626" x1="1593.08" y1="605.12" x2="1593.08" y2="457.74" xlink:href="#Unbenannter_Verlauf_626"/>
    <linearGradient id="Unbenannter_Verlauf_626-5" data-name="Unbenannter Verlauf 626" x1="1383.94" y1="653.9" x2="1383.94" y2="507.33" xlink:href="#Unbenannter_Verlauf_626"/>
    <linearGradient id="Unbenannter_Verlauf_368" data-name="Unbenannter Verlauf 368" x1="1409.38" y1="507.33" x2="1409.38" y2="38" gradientUnits="userSpaceOnUse">
      <stop offset="0" stop-color="#74264f"/>
      <stop offset="1" stop-color="#892788"/>
    </linearGradient>
    <linearGradient id="Unbenannter_Verlauf_626-6" data-name="Unbenannter Verlauf 626" x1="929.4" y1="653.9" x2="929.4" y2="507.33" xlink:href="#Unbenannter_Verlauf_626"/>
    <linearGradient id="Unbenannter_Verlauf_368-2" data-name="Unbenannter Verlauf 368" x1="959.98" y1="279.67" x2="959.98" y2="127.36" xlink:href="#Unbenannter_Verlauf_368"/>
    <linearGradient id="Unbenannter_Verlauf_368-3" data-name="Unbenannter Verlauf 368" x1="929.4" x2="929.4" xlink:href="#Unbenannter_Verlauf_368"/>
  </defs>
  <g>
    <g class="cls-5">
      <g>
        <polygon points="473.37 669.9 454.58 507.76 456.4 478.32 456.2 478.32 449.96 572.96 304.58 572.96 290.03 478.32 282.96 478.32 266.09 669.9 61.39 669.9 26.27 508.12 82.73 22.01 283.41 22.01 296.54 111.35 333.43 111.35 346.16 202.9 414.67 202.9 421.05 111.35 479.16 111.35 484.69 22.01 687.39 22.01 697.74 191.28 680.19 669.9 473.37 669.9"/>
        <path d="m672.34,38.01l9.39,153.46-16.96,462.42h-177.14l-16.99-146.57,2.78-45.01h-32.19l-6.24,94.64h-116.68l-14.55-94.64h-35.45l-16.87,191.58H74.29l-31.82-146.57L96.98,38.01h172.6l13.13,89.34h36.78l12.73,91.55h97.36l6.38-91.55h58.22l5.53-89.34h172.6m30.1-32h-232.79l-1.86,30.02-3.67,59.31h-57.99l-2.08,29.78-4.31,61.77h-39.66l-8.9-63.96-3.84-27.59h-37l-9.11-61.99-4.02-27.35H68.48l-3.29,28.31L10.69,503.63l-.61,5.28,1.13,5.2,31.82,146.57,5.47,25.21h232.25l2.57-29.19,6.54-74.26,1,6.51h157.03l7.95,68.62,3.28,28.32h236.49l1.13-30.83,16.96-462.42.06-1.56-.1-1.56-9.39-153.46-1.84-30.05h0Z"/>
      </g>
    </g>
    <g class="cls-5">
      <g>
        <g>
          <polygon points="1735.52 430.42 1735.52 398.42 1751.52 398.36 1761.41 398.36 1765.86 407.21 1777.44 430.36 1751.58 430.42 1735.52 430.42"/>
          <path d="m1751.55,414.36l.03.06h-.06v-.06h.03m19.74-32h-51.77v64.06h83.94l-23.28-46.36-.03-.06-8.86-17.64h0Z"/>
        </g>
        <g>
          <polygon points="1782.32 430.42 1782.32 398.42 1798.32 398.36 1814.32 398.36 1814.37 414.36 1814.37 430.36 1798.37 430.42 1782.32 430.42"/>
          <path d="m1798.37,414.36v.06h-.06v-.06h.06m32-32h-64.06v64.06h64.06v-64.06h0Z"/>
        </g>
      </g>
      <g>
        <polygon points="1653.91 669.9 1639.72 508.76 1644.73 478.32 1637.04 478.32 1611.74 191 1636.6 22.01 1837.27 22.01 1871.08 313.34 1864.79 344.42 1874.7 344.42 1893.73 508.12 1858.61 669.9 1653.91 669.9"/>
        <path d="m1823.02,38.01l31.88,274.65-9.67,47.76h15.23l17.07,146.91-31.82,146.57h-177.14l-12.73-144.53,7.74-47.05h-11.88l-23.85-270.85,22.58-153.46h172.6m-24.7,376.4h.06v-.06h-.06v.06m-46.8,0h.06l-.03-.06h-.03v.06M1851.52,6.01h-228.74l-4.02,27.34-22.58,153.46-.55,3.72.33,3.75,23.85,270.85,2.57,29.19h3.49l-1.62,9.85-.66,3.98.35,4.02,12.73,144.53,2.57,29.19h232.24l5.47-25.21,31.82-146.57,1.13-5.2-.61-5.28-17.07-146.91-3.29-28.31h-4.6l1.91-9.41,1.01-4.99-.59-5.05-31.88-274.65-3.29-28.31h0Z"/>
      </g>
    </g>
    <g class="cls-5">
      <g>
        <g>
          <polygon points="1735.52 430.42 1735.52 398.42 1751.52 398.36 1761.41 398.36 1765.86 407.21 1777.44 430.36 1751.58 430.42 1735.52 430.42"/>
          <path d="m1751.55,414.36l.03.06h-.06v-.06h.03m19.74-32h-51.77v64.06h83.94l-23.28-46.36-.03-.06-8.86-17.64h0Z"/>
        </g>
        <g>
          <polygon points="1782.32 430.42 1782.32 398.42 1798.32 398.36 1814.32 398.36 1814.37 414.36 1814.37 430.36 1798.37 430.42 1782.32 430.42"/>
          <path d="m1798.37,414.36v.06h-.06v-.06h.06m32-32h-64.06v64.06h64.06v-64.06h0Z"/>
        </g>
      </g>
    </g>
    <g class="cls-5">
      <g>
        <polygon points="1180.65 669.9 1166.62 191.31 1174.91 22.01 1550.17 22.01 1553.6 66.43 1611.37 66.43 1644.74 458.29 1619.27 621.11 1571.38 621.11 1564.32 669.9 1180.65 669.9"/>
        <path d="m1535.36,38.01l3.43,44.41h57.88l31.96,375.3-23.06,147.39h-48.04l-7.06,48.78h-354.28l-13.56-462.42,7.52-153.46h345.21m29.62-32h-405.3l-1.49,30.43-7.52,153.46-.06,1.25.04,1.25,13.56,462.42.91,31.06h413.06l3.97-27.42,3.09-21.37h47.73l4.23-27.05,23.06-147.39.6-3.81-.33-3.85-31.96-375.3-2.49-29.28h-57.65l-1.15-14.88-2.28-29.53h0Z"/>
      </g>
    </g>
    <g class="cls-5">
      <g>
        <polygon points="708.71 669.9 699.29 507.54 714.34 22.01 1148.24 22.01 1159.5 507.49 1152.46 669.9 708.71 669.9"/>
        <path d="m1132.6,38.01l10.89,469.31-6.35,146.57h-413.33l-8.51-146.57,14.55-469.31h402.75m31.27-32h-465.04l-.96,31.01-14.55,469.31-.04,1.42.08,1.42,8.51,146.57,1.75,30.15h474.17l1.33-30.61,6.35-146.57.05-1.06-.02-1.06-10.89-469.31-.73-31.26h0Z"/>
      </g>
    </g>
    <g>
      <g>
        <polygon points="1725.63 430.42 1751.52 378.64 1765.86 407.21 1777.44 430.36 1751.58 430.42 1725.63 430.42"/>
        <path d="m1751.55,414.36l.03.06h-.06l.03-.06m-.04-71.39l-28.57,57.06-.03.06-23.2,46.33h103.75l-23.28-46.36-.03-.06-28.64-57.02h0Z"/>
      </g>
      <g>
        <polygon points="1782.32 430.42 1782.32 375.79 1809.63 403.05 1836.94 430.36 1798.37 430.42 1782.32 430.42"/>
        <path d="m1798.32,414.36l.06.06h-.06v-.06m-32-77.09v109.15h109.47l-54.82-54.66-.06-.06-54.59-54.43h0Z"/>
      </g>
      <g>
        <polygon points="1735.52 414.36 1735.52 398.36 1777.41 398.36 1765.86 421.52 1735.55 482.14 1735.52 414.36"/>
        <path d="m1751.55,414.36l-.03.06v-.06h.03m51.81-32h-83.84v167.43l60.61-121.05.03-.06,23.2-46.33h0Z"/>
      </g>
      <g>
        <polygon points="1787 425.67 1759.69 398.36 1814.32 398.36 1814.37 414.36 1814.37 452.99 1787 425.67"/>
        <path d="m1798.37,414.36v.06l-.06-.06h.06m32-32h-109.47l54.82,54.66.06.06,54.59,54.43v-109.15h0Z"/>
      </g>
    </g>
  </g>
  <g>
    <g class="cls-5">
      <polygon points="282.73 127.36 261.29 127.36 269.59 38 282.73 127.36"/>
      <polygon points="332.24 218.89 311.71 218.89 319.51 127.36 332.24 218.89"/>
      <polygon points="303.75 462.32 268.31 462.32 244.08 312.65 303.72 312.65 295.53 408.78 303.75 462.32"/>
      <polygon points="482.71 312.65 473.44 462.32 441.24 462.32 423.06 312.65 482.71 312.65"/>
      <polygon points="441.24 462.32 434.98 556.95 416.35 408.78 423.06 312.65 441.24 462.32"/>
      <polygon class="cls-8" points="434.98 556.95 318.3 556.95 303.75 462.32 295.53 408.78 416.35 408.78 434.98 556.95"/>
      <polygon points="268.31 462.32 251.44 653.9 225.99 507.33 244.08 312.65 268.31 462.32"/>
      <polygon class="cls-11" points="251.44 653.9 74.3 653.9 42.47 507.33 225.99 507.33 251.44 653.9"/>
      <polygon points="681.73 191.48 664.76 653.9 654.15 507.33 672.33 38 681.73 191.48"/>
      <polygon class="cls-13" points="672.33 38 654.15 507.33 470.65 507.33 473.44 462.32 482.71 312.65 423.06 312.65 416.35 408.78 295.53 408.78 303.72 312.65 244.08 312.65 225.99 507.33 42.47 507.33 96.99 38 269.59 38 261.29 127.36 319.51 127.36 311.71 218.89 429.59 218.89 435.97 127.36 494.19 127.36 499.72 38 672.33 38"/>
      <polygon class="cls-3" points="664.76 653.9 487.62 653.9 470.65 507.33 654.15 507.33 664.76 653.9"/>
    </g>
    <g class="cls-5">
      <polygon points="1675.92 312.65 1651.69 462.32 1627.85 191.48 1650.41 38 1675.92 312.65"/>
      <polygon points="1854.91 312.65 1824.62 462.32 1651.69 462.32 1675.92 312.65 1854.91 312.65"/>
      <polygon class="cls-6" points="1650.41 38 1823.01 38 1854.91 312.65 1675.92 312.65 1650.41 38"/>
    </g>
    <g class="cls-5">
      <polygon points="1694.01 507.33 1668.56 653.9 1655.83 509.36 1680.36 360.43 1694.01 507.33"/>
      <polygon class="cls-1" points="1877.51 507.33 1845.7 653.9 1668.56 653.9 1694.01 507.33 1877.51 507.33"/>
      <polygon class="cls-12" points="1694.01 507.33 1680.36 360.43 1860.46 360.43 1877.51 507.33 1694.01 507.33"/>
    </g>
    <g class="cls-5">
      <polygon points="1425.81 127.36 1410.42 279.67 1375.85 279.67 1367.6 127.36 1425.81 127.36"/>
      <polygon points="1443.24 408.78 1417.99 408.78 1410.42 279.67 1425.81 127.36 1443.24 408.78"/>
      <polygon class="cls-2" points="1628.63 457.74 1605.58 605.12 1557.54 605.12 1571.69 507.33 1567.84 457.74 1628.63 457.74"/>
      <polygon points="1204.68 507.33 1196.19 653.9 1182.62 191.48 1190.14 38 1204.68 507.33"/>
      <polygon class="cls-14" points="1571.69 507.33 1557.54 605.12 1550.49 653.9 1196.19 653.9 1204.68 507.33 1571.69 507.33"/>
      <path class="cls-9" d="m1628.63,457.74l-31.97-375.32h-57.87l-3.44-44.41h-345.21l14.53,469.33h367.01l-3.84-49.59h60.78Zm-245.79-48.96l-6.99-129.12-8.25-152.31h58.22l17.43,281.43h-60.4Z"/>
    </g>
    <g class="cls-5">
      <polygon points="959.99 127.36 959.99 279.67 903.7 279.67 901.76 127.36 959.99 127.36"/>
      <polygon points="903.7 279.67 902.75 408.78 899.58 408.78 901.76 127.36 903.7 279.67"/>
      <polygon class="cls-10" points="1143.49 507.33 1137.12 653.9 723.8 653.9 715.31 507.33 1143.49 507.33"/>
      <g>
        <path class="cls-7" d="m959.98,279.67h.01V127.36v152.31Z"/>
        <path class="cls-4" d="m1132.59,38h-402.74l-14.54,469.33h428.18l-10.9-469.33Zm-172.6,241.66h-.01v129.12h-60.4l2.18-281.43h58.23v152.31Z"/>
      </g>
    </g>
    <g>
      <path d="m1751.56,414.36v.05s-.02,0-.04,0l.04-.05Z"/>
      <polygon points="1798.38 414.42 1798.32 414.42 1798.31 414.36 1798.38 414.42"/>
      <path d="m1823.79,433.26l6.41,57.08h-23.92s-2.07-19.07-2.07-19.07h-46.61s.15,1.45.15,1.45c.55,5.42,1.07,10.84,1.64,16.28.08.83.17,1.47-1.25,1.47-7.39-.04-14.75-.04-22.14-.04-.09,0-.21-.06-.53-.15l-5.27-54.53q-.24-2.46,2.85-2.46h20.43s-1.9-18.88-1.9-18.88h46.75s2.04,18.84,2.04,18.84h23.43Z"/>
      <polygon points="1747.78 377.29 1751.51 414.36 1705.12 414.36 1701.68 377.29 1747.78 377.29"/>
      <path d="m1751.52,414.42v-.05s.02,0,.04,0l-.04.05Z"/>
      <polygon points="1798.31 414.36 1798.38 414.36 1798.38 414.42 1798.31 414.36"/>
      <polygon points="1840.42 377.29 1844.73 414.36 1798.38 414.36 1794.36 377.29 1840.42 377.29"/>
    </g>
  </g>
</svg>